<svg width="250" height="250" viewBox="0 0 250 250" fill="none" xmlns="http://www.w3.org/2000/svg">
<path d="M128.372 94.6256H141.969L129.941 153.636H100.969L96.7856 127.154L94.7984 119.96L92.9157 127.05L89.1504 153.636H60.2831L47 94.6256H60.5969L71.9974 145.504H77.227L87.6861 94.6256H101.283L112.684 145.504H118.018L128.372 94.6256Z" fill="#507A49"/>
<path d="M156.851 128.614C158.42 136.746 164.696 142.272 174.004 142.272C181.012 142.272 187.078 139.665 191.576 133.723L200.466 139.77C194.818 150.508 184.673 155.2 174.004 155.2C157.165 155.2 143.464 141.542 143.464 124.548C143.464 107.658 157.165 94 174.004 94C191.68 94 203.604 108.179 202.976 128.614H156.851ZM174.004 106.72C165.01 106.72 158.839 112.454 156.956 119.856H190.425C188.647 111.411 181.849 106.72 174.004 106.72Z" fill="#507A49"/>
</svg>
