<svg width="469" height="166" viewBox="0 0 469 166" fill="none" xmlns="http://www.w3.org/2000/svg">
<rect x="0.5" y="0.5" width="468" height="165" fill="white" stroke="white"/>
<path d="M80.2056 66.227H89.7644L81.3085 107.896H60.941L57.9998 89.1963L56.6028 84.1166L55.2793 89.1227L52.6322 107.896H32.3382L23 66.227H32.5588L40.5734 102.153H44.2499L51.6028 66.227H61.1616L69.1762 102.153H72.9262L80.2056 66.227Z" fill="#507A49"/>
<path d="M100.227 90.227C101.33 95.9693 105.741 99.8712 112.286 99.8712C117.212 99.8712 121.477 98.0307 124.638 93.8344L130.888 98.1043C126.918 105.687 119.785 109 112.286 109C100.447 109 90.815 99.3558 90.815 87.3558C90.815 75.4294 100.447 65.7853 112.286 65.7853C124.712 65.7853 133.094 75.7975 132.653 90.227H100.227ZM112.286 74.7669C105.962 74.7669 101.624 78.816 100.3 84.0429H123.83C122.58 78.0798 117.8 74.7669 112.286 74.7669Z" fill="#507A49"/>
<path d="M166.103 65.7853C176.471 65.7853 184.412 75.4294 184.412 88.2393C184.412 99.3558 176.471 109 166.103 109C157.794 109 151.765 104.804 150 94.2025H148.75L149.485 107.896H140.074V49H149.485V66.227L148.75 79.773H150.294C152.28 70.7178 158.162 65.7853 166.103 65.7853ZM162.868 99.6503C170 99.6503 175.147 94.6442 175.147 87.7975C175.147 80.5828 170 75.5767 162.868 75.5767C155.882 75.5767 150.588 80.8037 150.588 87.5767C150.588 93.6871 156.03 99.6503 162.868 99.6503Z" fill="black"/>
<path d="M200.524 79.8466C202.289 68.5828 207.583 66.227 217.288 66.227V76.4601C206.847 74.3988 201.112 79.8466 201.112 89.7853V107.896H191.774V66.1534H201.112L199.053 79.8466H200.524Z" fill="black"/>
<path d="M241.552 65.7853C255.449 65.7853 262.067 72.2638 262.067 85.1472V107.896H253.023L254.494 93.7607H253.391C251.552 104.215 245.964 108.926 237.508 108.926C227.214 108.926 222.435 104.215 222.435 96.4847C222.435 88.0184 229.273 82.865 242.141 82.865H252.876C251.92 77.638 248.317 75.2086 241.552 75.2086C236.626 75.2086 233.758 77.2699 230.964 81.0982L223.464 76.0184C228.023 69.4663 233.611 65.7853 241.552 65.7853ZM238.905 99.4295C247.361 99.4295 251.405 95.6749 252.582 88.9755H242.141C235.082 88.9755 231.847 90.7423 231.847 94.4969C231.847 97.2209 233.979 99.4295 238.905 99.4295Z" fill="black"/>
<path d="M278.146 79.8466C279.91 68.5828 285.205 66.227 294.91 66.227V76.4601C284.469 74.3988 278.734 79.8466 278.734 89.7853V107.896H269.396V66.1534H278.734L276.675 79.8466H278.146Z" fill="black"/>
<path d="M307.65 62.4724C304.636 62.4724 302.283 60.1902 302.283 57.2454C302.283 54.3006 304.636 51.9448 307.65 51.9448C310.518 51.9448 312.797 54.3006 312.797 57.2454C312.797 60.1902 310.518 62.4724 307.65 62.4724ZM303.018 107.896V66.227H312.209V107.896H303.018Z" fill="black"/>
<path d="M355.109 66.227H364.521V107.896H355.109L357.168 94.2761H355.771C354.006 106.423 348.418 109 339.888 109C328.491 109 322.388 102.521 322.388 85.9571V66.227H331.506V85.9571C331.506 95.1595 334.815 99.5767 342.535 99.5767C350.182 99.5767 355.109 94.2761 355.109 84.3374V66.227Z" fill="black"/>
<path d="M374.089 107.896V66.1534H383.5L381.441 79.8466H383.206C385.706 67.9939 392.986 65.1227 399.309 65.1227C407.618 65.1227 413.059 70.1288 412.691 79.8466H414.456C416.956 67.9939 424.235 65.1227 430.559 65.1227C439.897 65.1227 446 70.2761 446 88.1656V107.896H436.882V88.1656C436.882 78.9632 433.574 74.546 427.029 74.546C419.382 74.546 414.75 79.8466 414.75 89.7853V107.896H405.633V88.1656C405.633 78.9632 402.324 74.546 395.78 74.546C388.133 74.546 383.5 79.8466 383.5 89.7853V107.896H374.089Z" fill="black"/>
</svg>
