<svg width="469" height="166" viewBox="0 0 469 166" fill="none" xmlns="http://www.w3.org/2000/svg">
<rect x="0.5" y="0.5" width="468" height="165" fill="white" stroke="white"/>
<path d="M80.2056 65.227H89.7644L81.3085 106.896H60.941L57.9998 88.1963L56.6028 83.1166L55.2793 88.1227L52.6322 106.896H32.3382L23 65.227H32.5588L40.5734 101.153H44.2499L51.6028 65.227H61.1616L69.1762 101.153H72.9262L80.2056 65.227Z" fill="black"/>
<path d="M100.227 89.227C101.33 94.9693 105.741 98.8712 112.286 98.8712C117.212 98.8712 121.477 97.0307 124.638 92.8344L130.888 97.1043C126.918 104.687 119.785 108 112.286 108C100.447 108 90.815 98.3558 90.815 86.3558C90.815 74.4294 100.447 64.7853 112.286 64.7853C124.712 64.7853 133.094 74.7975 132.653 89.227H100.227ZM112.286 73.7669C105.962 73.7669 101.624 77.816 100.3 83.0429H123.83C122.58 77.0798 117.8 73.7669 112.286 73.7669Z" fill="black"/>
<path d="M166.103 64.7853C176.471 64.7853 184.412 74.4294 184.412 87.2393C184.412 98.3558 176.471 108 166.103 108C157.794 108 151.765 103.804 150 93.2025H148.75L149.485 106.896H140.074V48H149.485V65.227L148.75 78.773H150.294C152.28 69.7178 158.162 64.7853 166.103 64.7853ZM162.868 98.6503C170 98.6503 175.147 93.6442 175.147 86.7975C175.147 79.5828 170 74.5767 162.868 74.5767C155.882 74.5767 150.588 79.8037 150.588 86.5767C150.588 92.6871 156.03 98.6503 162.868 98.6503Z" fill="black"/>
<path d="M200.524 78.8466C202.289 67.5828 207.583 65.227 217.288 65.227V75.4601C206.847 73.3988 201.112 78.8466 201.112 88.7853V106.896H191.774V65.1534H201.112L199.053 78.8466H200.524Z" fill="black"/>
<path d="M241.552 64.7853C255.449 64.7853 262.067 71.2638 262.067 84.1472V106.896H253.023L254.494 92.7607H253.391C251.552 103.215 245.964 107.926 237.508 107.926C227.214 107.926 222.435 103.215 222.435 95.4847C222.435 87.0184 229.273 81.865 242.141 81.865H252.876C251.92 76.638 248.317 74.2086 241.552 74.2086C236.626 74.2086 233.758 76.2699 230.964 80.0982L223.464 75.0184C228.023 68.4663 233.611 64.7853 241.552 64.7853ZM238.905 98.4294C247.361 98.4294 251.405 94.6748 252.582 87.9755H242.141C235.082 87.9755 231.847 89.7423 231.847 93.4969C231.847 96.2209 233.979 98.4294 238.905 98.4294Z" fill="black"/>
<path d="M278.146 78.8466C279.91 67.5828 285.205 65.227 294.91 65.227V75.4601C284.469 73.3988 278.734 78.8466 278.734 88.7853V106.896H269.396V65.1534H278.734L276.675 78.8466H278.146Z" fill="black"/>
<path d="M307.65 61.4724C304.636 61.4724 302.283 59.1902 302.283 56.2454C302.283 53.3006 304.636 50.9448 307.65 50.9448C310.518 50.9448 312.797 53.3006 312.797 56.2454C312.797 59.1902 310.518 61.4724 307.65 61.4724ZM303.018 106.896V65.227H312.209V106.896H303.018Z" fill="black"/>
<path d="M355.109 65.227H364.521V106.896H355.109L357.168 93.2761H355.771C354.006 105.423 348.418 108 339.888 108C328.491 108 322.388 101.521 322.388 84.9571V65.227H331.506V84.9571C331.506 94.1595 334.815 98.5767 342.535 98.5767C350.182 98.5767 355.109 93.2761 355.109 83.3374V65.227Z" fill="black"/>
<path d="M374.089 106.896V65.1534H383.5L381.441 78.8466H383.206C385.706 66.9939 392.986 64.1227 399.309 64.1227C407.618 64.1227 413.059 69.1288 412.691 78.8466H414.456C416.956 66.9939 424.235 64.1227 430.559 64.1227C439.897 64.1227 446 69.2761 446 87.1656V106.896H436.882V87.1656C436.882 77.9632 433.574 73.546 427.029 73.546C419.382 73.546 414.75 78.8466 414.75 88.7853V106.896H405.633V87.1656C405.633 77.9632 402.324 73.546 395.78 73.546C388.133 73.546 383.5 78.8466 383.5 88.7853V106.896H374.089Z" fill="black"/>
</svg>
