<svg width="469" height="166" viewBox="0 0 469 166" fill="none" xmlns="http://www.w3.org/2000/svg">
<path d="M80.2056 70.227H89.7644L81.3085 111.896H60.941L57.9998 93.1963L56.6028 88.1166L55.2793 93.1227L52.6322 111.896H32.3382L23 70.227H32.5588L40.5734 106.153H44.2499L51.6028 70.227H61.1616L69.1762 106.153H72.9262L80.2056 70.227Z" fill="white"/>
<path d="M100.227 94.227C101.33 99.9693 105.741 103.871 112.286 103.871C117.212 103.871 121.477 102.031 124.638 97.8344L130.888 102.104C126.918 109.687 119.785 113 112.286 113C100.447 113 90.815 103.356 90.815 91.3558C90.815 79.4294 100.447 69.7853 112.286 69.7853C124.712 69.7853 133.094 79.7975 132.653 94.227H100.227ZM112.286 78.7669C105.962 78.7669 101.624 82.816 100.3 88.0429H123.83C122.58 82.0798 117.8 78.7669 112.286 78.7669Z" fill="white"/>
<path d="M166.103 69.7853C176.471 69.7853 184.412 79.4294 184.412 92.2393C184.412 103.356 176.471 113 166.103 113C157.794 113 151.765 108.804 150 98.2025H148.75L149.485 111.896H140.074V53H149.485V70.227L148.75 83.773H150.294C152.28 74.7178 158.162 69.7853 166.103 69.7853ZM162.868 103.65C170 103.65 175.147 98.6442 175.147 91.7975C175.147 84.5828 170 79.5767 162.868 79.5767C155.882 79.5767 150.588 84.8037 150.588 91.5767C150.588 97.6871 156.03 103.65 162.868 103.65Z" fill="white"/>
<path d="M200.524 83.8466C202.289 72.5828 207.583 70.227 217.288 70.227V80.4601C206.847 78.3988 201.112 83.8466 201.112 93.7853V111.896H191.774V70.1534H201.112L199.053 83.8466H200.524Z" fill="white"/>
<path d="M241.552 69.7853C255.449 69.7853 262.067 76.2638 262.067 89.1472V111.896H253.023L254.494 97.7607H253.391C251.552 108.215 245.964 112.926 237.508 112.926C227.214 112.926 222.435 108.215 222.435 100.485C222.435 92.0184 229.273 86.865 242.141 86.865H252.876C251.92 81.638 248.317 79.2086 241.552 79.2086C236.626 79.2086 233.758 81.2699 230.964 85.0982L223.464 80.0184C228.023 73.4663 233.611 69.7853 241.552 69.7853ZM238.905 103.429C247.361 103.429 251.405 99.6748 252.582 92.9755H242.141C235.082 92.9755 231.847 94.7423 231.847 98.4969C231.847 101.221 233.979 103.429 238.905 103.429Z" fill="white"/>
<path d="M278.146 83.8466C279.91 72.5828 285.205 70.227 294.91 70.227V80.4601C284.469 78.3988 278.734 83.8466 278.734 93.7853V111.896H269.396V70.1534H278.734L276.675 83.8466H278.146Z" fill="white"/>
<path d="M307.65 66.4724C304.636 66.4724 302.283 64.1902 302.283 61.2454C302.283 58.3006 304.636 55.9448 307.65 55.9448C310.518 55.9448 312.797 58.3006 312.797 61.2454C312.797 64.1902 310.518 66.4724 307.65 66.4724ZM303.018 111.896V70.227H312.209V111.896H303.018Z" fill="white"/>
<path d="M355.109 70.227H364.521V111.896H355.109L357.168 98.2761H355.771C354.006 110.423 348.418 113 339.888 113C328.491 113 322.388 106.521 322.388 89.9571V70.227H331.506V89.9571C331.506 99.1595 334.815 103.577 342.535 103.577C350.182 103.577 355.109 98.2761 355.109 88.3374V70.227Z" fill="white"/>
<path d="M374.089 111.896V70.1534H383.5L381.441 83.8466H383.206C385.706 71.9939 392.986 69.1227 399.309 69.1227C407.618 69.1227 413.059 74.1288 412.691 83.8466H414.456C416.956 71.9939 424.235 69.1227 430.559 69.1227C439.897 69.1227 446 74.2761 446 92.1656V111.896H436.882V92.1656C436.882 82.9632 433.574 78.546 427.029 78.546C419.382 78.546 414.75 83.8466 414.75 93.7853V111.896H405.633V92.1656C405.633 82.9632 402.324 78.546 395.78 78.546C388.133 78.546 383.5 83.8466 383.5 93.7853V111.896H374.089Z" fill="white"/>
</svg>
