<svg width="144" height="51" viewBox="0 0 144 51" fill="none" xmlns="http://www.w3.org/2000/svg">
<path fill-rule="evenodd" clip-rule="evenodd" d="M0 39.8185V0.010376H21.3673V5.02542H5.1549V15.8751H17.6093V20.8902H5.1549V39.8381L0 39.8185ZM34.0381 4.75223C34.0381 6.58653 32.5428 8.08909 30.6736 8.08909C28.8242 8.08909 27.3092 6.58653 27.3092 4.75223C27.3092 2.91793 28.8045 1.41537 30.6736 1.41537C32.5231 1.41537 34.0381 2.91793 34.0381 4.75223ZM28.0568 39.8185V13.1041H33.2117V39.8185H28.0568ZM40.707 24.9101C40.707 18.0802 45.4881 12.3237 52.3547 12.3237C55.5028 12.3237 58.0802 13.5335 59.9691 15.4849V13.1042H65.1043V37.8672C65.1043 45.1264 59.182 51 51.8629 51C49.2264 51 46.767 50.239 44.7011 48.912L47.2982 44.4629C48.5968 45.3605 50.2298 45.985 51.8825 45.985C56.4669 45.985 59.9691 42.2969 59.9691 37.8672V34.3352C58.0802 36.2866 55.5028 37.4965 52.3547 37.4965C45.4881 37.4965 40.707 31.7399 40.707 24.9101ZM52.9253 17.3387C49.1477 17.3387 45.8816 20.6756 45.8816 24.9101C45.8816 29.1446 49.1477 32.4814 52.9253 32.4814C56.703 32.4814 59.9691 29.1446 59.9691 24.9101C59.9691 20.6756 56.703 17.3387 52.9253 17.3387ZM83.7364 17.3387C80.6867 17.3387 78.2076 19.9145 78.2076 22.9392V39.8186H73.0527V13.1042H78.2076V15.5434C79.7226 13.6116 81.9459 12.3237 84.8579 12.3237C88.4781 12.3237 91.2523 14.0994 92.8657 16.8313C94.6561 14.197 97.568 12.3237 101.09 12.3237C106.973 12.3237 110.632 17.0265 110.652 22.8416V39.8186H105.497V22.9197C105.497 19.895 103.018 17.3192 99.9684 17.3192C96.9188 17.3192 94.4397 19.895 94.4397 22.9197V39.8186H89.2848V22.9197C89.2651 19.895 86.786 17.3387 83.7364 17.3387ZM129.069 12.3237C132.709 12.3237 135.857 13.7677 138.159 16.1288V13.1042H143.314V39.8186H138.159V36.8135C135.857 39.1551 132.709 40.6187 129.069 40.6187C121.376 40.6187 115.926 34.1596 115.926 26.4712C115.926 18.7827 121.395 12.3237 129.069 12.3237ZM129.639 17.3387C125.035 17.3387 121.1 21.3781 121.1 26.4712C121.1 31.5643 125.035 35.5841 129.639 35.6036C134.243 35.6036 138.178 31.5643 138.178 26.4712C138.178 21.3585 134.224 17.3387 129.639 17.3387Z" fill="white"/>
</svg>
