<svg width="166" height="33" viewBox="0 0 166 33" fill="none" xmlns="http://www.w3.org/2000/svg">
<g clip-path="url(#clip0_1865_519)">
<path d="M110.352 0.0136719H139.266V5.23878H127.796V32.7274H122.06V5.23878H110.352V0.0136719Z" fill="white"/>
<path d="M62.797 0.0136719V5.23878H39.6203V13.6444H58.259V18.8695H39.6203V27.5023H62.797V32.7274H33.8852V5.23878H33.8828V0.0136719H62.797Z" fill="white"/>
<path d="M77.2359 0.0272827H69.7305L96.6132 32.741H104.14L90.6974 16.3954L104.119 0.0522412L96.6132 0.0635973L86.9397 11.8262L77.2359 0.0272827Z" fill="white"/>
<path d="M84.9395 23.3949L81.1809 18.8195L69.7109 32.766H77.2378L84.9395 23.3949Z" fill="white"/>
<path fill-rule="evenodd" clip-rule="evenodd" d="M34.0877 32.7273L7.1688 0H0V32.7137H5.73505V6.99253L26.883 32.7273H34.0877Z" fill="white"/>
<path d="M140.555 32.5275C140.135 32.5275 139.778 32.3851 139.478 32.1002C139.179 31.8153 139.031 31.4704 139.035 31.0617C139.031 30.6643 139.179 30.3231 139.478 30.0382C139.778 29.7533 140.135 29.6108 140.555 29.6108C140.959 29.6108 141.312 29.7533 141.612 30.0382C141.915 30.3231 142.066 30.6643 142.07 31.0617C142.066 31.3316 141.996 31.579 141.856 31.8002C141.713 32.0252 141.53 32.2014 141.301 32.3289C141.075 32.4601 140.827 32.5275 140.555 32.5275Z" fill="white"/>
<path d="M150.346 18.7462H152.887V28.3324C152.883 29.2134 152.689 29.967 152.308 30.6006C151.923 31.2342 151.391 31.7177 150.707 32.0589C150.027 32.3963 149.23 32.5688 148.325 32.5688C147.497 32.5688 146.755 32.4226 146.094 32.1377C145.434 31.8527 144.909 31.4254 144.525 30.863C144.136 30.3006 143.945 29.5996 143.945 28.7598H146.491C146.495 29.1272 146.58 29.4458 146.743 29.712C146.906 29.9782 147.132 30.1806 147.42 30.3231C147.711 30.4656 148.045 30.5368 148.422 30.5368C148.83 30.5368 149.18 30.4543 149.463 30.2856C149.747 30.1207 149.965 29.8732 150.116 29.5433C150.264 29.2172 150.342 28.8123 150.346 28.3324V18.7462Z" fill="white"/>
<path d="M163.344 22.4952C163.282 21.9141 163.01 21.4605 162.536 21.1381C162.057 20.8119 161.44 20.6507 160.682 20.6507C160.15 20.6507 159.691 20.7294 159.31 20.8831C158.93 21.0406 158.634 21.2505 158.432 21.5167C158.23 21.7829 158.129 22.0866 158.121 22.4277C158.121 22.7127 158.191 22.9601 158.327 23.1663C158.463 23.3762 158.646 23.5524 158.883 23.6949C159.116 23.8411 159.376 23.9611 159.66 24.0585C159.947 24.156 160.235 24.2385 160.523 24.306L161.848 24.6246C162.38 24.7446 162.897 24.9058 163.391 25.112C163.884 25.3145 164.331 25.5731 164.723 25.8843C165.116 26.1955 165.427 26.5704 165.656 27.009C165.885 27.4476 166.002 27.9612 166.002 28.5536C166.002 29.3521 165.792 30.0532 165.368 30.6605C164.945 31.2641 164.335 31.7365 163.534 32.0777C162.737 32.4151 161.774 32.5875 160.639 32.5875C159.543 32.5875 158.587 32.4226 157.783 32.0927C156.975 31.7665 156.345 31.2866 155.891 30.6568C155.436 30.0269 155.191 29.2584 155.156 28.3549H157.674C157.709 28.8272 157.865 29.2209 158.129 29.5396C158.397 29.8545 158.747 30.0869 159.174 30.2444C159.606 30.3981 160.087 30.4768 160.62 30.4768C161.176 30.4768 161.665 30.3943 162.089 30.2331C162.508 30.0719 162.839 29.847 163.076 29.5546C163.317 29.2659 163.437 28.9247 163.441 28.5349C163.437 28.1787 163.328 27.8825 163.118 27.65C162.905 27.4176 162.609 27.2227 162.232 27.0652C161.852 26.9078 161.409 26.7653 160.903 26.6416L159.295 26.2442C158.133 25.9555 157.212 25.5169 156.539 24.9283C155.864 24.3397 155.529 23.5599 155.529 22.5814C155.529 21.7792 155.755 21.0744 156.21 20.4708C156.66 19.8672 157.278 19.3986 158.059 19.0649C158.844 18.7275 159.73 18.5625 160.717 18.5625C161.72 18.5625 162.598 18.7275 163.356 19.0649C164.113 19.3986 164.708 19.8634 165.139 20.4558C165.57 21.0481 165.796 21.7267 165.808 22.4952H163.344Z" fill="white"/>
</g>
<defs>
<clipPath id="clip0_1865_519">
<rect width="166" height="33" fill="white"/>
</clipPath>
</defs>
</svg>
