<svg width="183" height="49" viewBox="0 0 183 49" fill="none" xmlns="http://www.w3.org/2000/svg">
<path fill-rule="evenodd" clip-rule="evenodd" d="M91.9875 6.51766e-05C91.8614 0.00159578 91.7337 0.0315122 91.6211 0.0971291C91.3963 0.228262 91.2548 0.469092 91.2548 0.728064V19.292C91.2548 19.4744 91.1693 19.6374 91.0105 19.7289C90.8513 19.8206 90.6571 19.8206 90.4976 19.7289L87.4443 17.9817C86.9894 17.7211 86.4338 17.7212 85.9788 17.9817L73.7903 24.9705C73.3346 25.2316 73.0575 25.734 73.0575 26.2565V40.2341C73.0575 40.7563 73.335 41.2344 73.7903 41.496L85.9788 48.4848C86.4345 48.746 86.9886 48.746 87.4443 48.4848L99.6328 41.496C100.088 41.2344 100.366 40.7563 100.366 40.2341V5.38726C100.366 4.85718 100.074 4.35971 99.6084 4.10112L92.3539 0.0728678C92.24 0.00973659 92.1137 -0.00133379 91.9875 6.51766e-05ZM13.5807 17.4477C13.3483 17.457 13.1299 17.4974 12.9212 17.6176L0.732774 24.6064C0.278611 24.8673 0 25.3423 0 25.8683L0.0243734 44.6263C0.0243734 44.8872 0.15986 45.1295 0.390763 45.2573C0.61708 45.3919 0.897983 45.3919 1.12354 45.2573L8.35357 41.132C8.81156 40.8616 9.11077 40.3914 9.11077 39.8701V31.1099C9.11077 30.5873 9.38745 30.1078 9.84354 29.848L12.9212 28.0766C13.1509 27.9446 13.3975 27.8825 13.654 27.8825C13.9052 27.8825 14.1634 27.9446 14.3867 28.0766L17.4644 29.848C17.9205 30.1078 18.1972 30.5873 18.1972 31.1099V39.8701C18.1972 40.3914 18.4994 40.8647 18.9544 41.132L26.1844 45.2573C26.4115 45.3919 26.692 45.3919 26.9172 45.2573C27.1416 45.1295 27.2836 44.8872 27.2836 44.6263L27.3079 25.8683C27.3079 25.3423 27.0324 24.8673 26.5752 24.6064L14.3867 17.6176C14.1806 17.4974 13.9612 17.4572 13.7272 17.4477H13.5807ZM123.106 17.6176C122.851 17.6173 122.602 17.6813 122.373 17.8118L110.185 24.8005C109.729 25.0618 109.452 25.5399 109.452 26.0624V40.04C109.452 40.5655 109.75 41.0421 110.209 41.3018L122.3 48.145C122.746 48.3983 123.292 48.4173 123.741 48.1691L131.069 44.1165C131.301 43.9884 131.459 43.7491 131.46 43.4856C131.461 43.2221 131.323 42.9858 131.093 42.8547L118.831 35.8659C118.602 35.7358 118.441 35.4723 118.441 35.2106V30.8426C118.441 30.5815 118.604 30.3422 118.831 30.2118L122.642 28.0277C122.869 27.8974 123.147 27.8974 123.375 28.0277L127.185 30.2118C127.413 30.3422 127.551 30.5815 127.551 30.8426V34.2886C127.551 34.5501 127.69 34.7891 127.918 34.9194C128.146 35.0502 128.423 35.0508 128.651 34.9194L135.954 30.6971C136.407 30.4355 136.687 29.9562 136.687 29.4353V26.0622C136.687 25.5412 136.408 25.0619 135.954 24.8003L123.839 17.8115C123.611 17.6801 123.361 17.6179 123.106 17.6176ZM86.6627 28.0523C86.7263 28.0523 86.8011 28.0678 86.8581 28.1004L91.0349 30.5029C91.1483 30.5681 91.2303 30.6882 91.2303 30.8183V35.6231C91.2303 35.7535 91.149 35.8737 91.0349 35.9386L86.8581 38.3409C86.7444 38.4054 86.6055 38.4054 86.4917 38.3409L82.3149 35.9386C82.2012 35.8733 82.1195 35.7535 82.1195 35.6231V30.8183C82.1195 30.6882 82.2016 30.5684 82.3149 30.5029L86.4917 28.1008C86.5488 28.0682 86.5992 28.0527 86.6627 28.0527V28.0523Z" fill="white"/>
<path fill-rule="evenodd" clip-rule="evenodd" d="M159.621 17.2778C159.198 17.2778 158.787 17.3646 158.424 17.569L146.919 24.1695C146.175 24.5953 145.722 25.4003 145.722 26.2564V39.4332C145.722 40.2889 146.175 41.0929 146.919 41.5201L149.924 43.2431C151.383 43.9578 151.922 43.9467 152.586 43.9467C154.747 43.9467 155.981 42.644 155.981 40.3796V27.3727C155.981 27.1888 155.821 27.0572 155.639 27.0572H154.198C154.013 27.0572 153.856 27.1888 153.856 27.3727V40.3796C153.856 41.3833 152.804 42.3926 151.096 41.5444L147.97 39.7244C147.859 39.6646 147.774 39.5591 147.774 39.4332V26.2564C147.774 26.1313 147.858 26.0043 147.97 25.941L159.45 19.3647C159.557 19.3034 159.685 19.3034 159.792 19.3647L171.272 25.941C171.381 26.0062 171.467 26.1275 171.467 26.2564V39.4332C171.467 39.5591 171.404 39.688 171.296 39.7487L159.792 46.3249C159.693 46.3832 159.557 46.3832 159.45 46.3249L156.494 44.5778C156.406 44.5265 156.286 44.5304 156.201 44.5778C155.385 45.0372 155.232 45.0907 154.467 45.3543C154.278 45.4195 153.992 45.521 154.564 45.8396L158.424 48.0964C158.791 48.3076 159.2 48.4118 159.621 48.4118C160.047 48.4118 160.45 48.3076 160.817 48.0964L172.322 41.5201C173.067 41.0899 173.519 40.2889 173.519 39.4332V26.2564C173.519 25.4003 173.067 24.5971 172.322 24.1695L160.817 17.569C160.457 17.3646 160.043 17.2778 159.621 17.2778ZM50.1931 17.5447C49.9391 17.5447 49.6878 17.6083 49.4603 17.7388L37.2718 24.7034C36.8162 24.9643 36.5391 25.4674 36.5391 25.9895V39.967C36.5391 40.4897 36.8164 40.9674 37.2718 41.2289L49.4603 48.2177C49.916 48.4791 50.4702 48.4791 50.9259 48.2177L63.1143 41.2289C63.5692 40.9674 63.8471 40.4897 63.8471 39.967V25.9895C63.8471 25.4666 63.57 24.9643 63.1143 24.7034L50.9259 17.7388C50.6984 17.6083 50.4471 17.5447 50.1931 17.5447ZM176.694 17.6177V17.9574H177.647V20.4568H178.038V17.9574H179.015V17.6177H176.694ZM179.357 17.6177V20.4568H179.723V18.7825C179.723 18.7141 179.726 18.6084 179.723 18.467C179.718 18.323 179.723 18.1974 179.723 18.1272V18.0542L180.529 20.4566H180.92L181.75 18.0542C181.75 18.207 181.73 18.3546 181.726 18.491C181.724 18.6238 181.726 18.7235 181.726 18.7822V20.4566H182.092V17.6174H181.555L180.725 20.0199L179.919 17.6174L179.357 17.6177ZM162.698 26.6934C159.422 26.6934 157.471 28.0785 157.471 30.3819C157.471 32.8807 159.408 33.5672 162.552 33.8763C166.313 34.2421 166.606 34.7908 166.606 35.5264C166.606 36.8023 165.582 37.3464 163.162 37.3464C160.122 37.3464 159.454 36.5923 159.23 35.0896C159.203 34.9285 159.078 34.7984 158.912 34.7984H157.422C157.239 34.7984 157.08 34.9554 157.08 35.1382C157.08 37.0616 158.134 39.3363 163.162 39.3363C166.803 39.3363 168.902 37.9167 168.902 35.4294C168.902 32.9636 167.206 32.3017 163.675 31.8379C160.107 31.3689 159.767 31.1393 159.767 30.3092C159.767 29.6239 160.055 28.7075 162.698 28.7075C165.059 28.7075 165.931 29.2132 166.289 30.7945C166.32 30.9431 166.452 31.0614 166.606 31.0614H168.096C168.188 31.0614 168.277 31.0055 168.341 30.94C168.403 30.8701 168.447 30.7914 168.438 30.6974C168.208 27.9742 166.38 26.6934 162.698 26.6934ZM123.08 30.0179C123.031 30.0179 122.977 30.0179 122.933 30.042L120.588 31.4009C120.5 31.4506 120.442 31.5431 120.442 31.6436V34.3129C120.442 34.4134 120.5 34.5055 120.588 34.5556L122.933 35.8902C123.021 35.9407 123.115 35.9407 123.202 35.8902L125.547 34.5556C125.634 34.5059 125.693 34.4134 125.693 34.3129V31.6436C125.693 31.5431 125.634 31.4509 125.547 31.4009L123.202 30.042C123.158 30.0164 123.128 30.0179 123.08 30.0179Z" fill="white"/>
</svg>
