<svg width="154" height="50" viewBox="0 0 154 50" fill="none" xmlns="http://www.w3.org/2000/svg">
<path fill-rule="evenodd" clip-rule="evenodd" d="M128.215 12.7101H123.166L123.428 11.5078C123.849 9.05233 125.322 6.85762 127.741 6.85762C129.032 6.85762 130.054 7.22342 130.054 7.22342L131.474 1.58094C131.474 1.58094 130.212 0.954346 127.529 0.954346C124.952 0.954346 122.377 1.68585 120.43 3.35728C117.958 5.44708 116.801 8.4766 116.223 11.5078L116.014 12.7101H112.647L111.595 18.1444H114.962L111.123 38.3115H118.381L122.22 18.1444H127.216L128.215 12.7101ZM31.4495 16.0006C33.3944 13.7025 35.9188 12.1869 39.127 12.1869C42.913 12.1869 45.069 14.6424 45.072 18.7184C45.072 19.9733 44.861 21.853 44.545 23.4211L41.706 38.3115H34.4477L37.1818 23.8919C37.3915 22.8995 37.4972 21.6972 37.4972 20.7048C37.4972 19.1367 36.8648 18.0394 35.2353 18.0394C32.9205 18.0394 30.4489 20.964 29.5029 25.7191L27.0841 38.3098H19.8262L26.8728 1.47595H34.1307L31.3438 15.948L31.4495 16.0006ZM10.3585 19.9716C10.3585 21.1214 11.3046 21.958 13.1455 22.9503C15.9869 24.5692 18.3528 26.7639 18.3545 29.8443C18.3545 35.5918 13.6738 38.7789 7.1522 38.7789C2.6664 38.7789 0 37.0025 0 37.0025L1.788 31.8816C1.788 31.8816 4.674 33.4497 7.7301 33.4497C9.7807 33.4497 10.8852 32.3524 10.8852 30.9942C10.8852 29.6885 10.096 28.7995 7.8869 27.5463C5.1512 25.9799 3.1006 23.7852 3.1006 20.9114C3.1006 15.843 7.4923 12.2377 13.829 12.2377C18.3825 12.2377 19.9295 13.44 19.9295 13.44L18.2471 18.5609C18.2471 18.5609 16.114 17.5685 13.725 17.5685C11.6727 17.5685 10.3585 18.5085 10.3585 19.9716ZM61.4769 12.1868C52.7459 12.1868 46.9629 20.0241 46.9629 28.7487C46.9629 34.3387 50.4329 38.8315 56.9549 38.8315C65.5269 38.8315 71.3119 31.2042 71.3119 22.2696C71.3119 17.0978 68.2609 12.1868 61.4769 12.1868ZM57.9009 33.2955C55.4289 33.2955 54.3769 31.2058 54.3769 28.5928C54.3769 24.4659 56.5339 17.7261 60.4779 17.7261C63.0549 17.7261 63.8949 19.9207 63.8949 22.063C63.8949 26.5031 61.7409 33.2955 57.9009 33.2955ZM82.1962 16.4712C82.1962 16.4712 84.9762 12.1868 89.8752 12.1868C95.1862 12.1868 97.3432 16.5238 97.3432 21.3806C97.3432 30.1593 91.7692 38.8315 83.2502 38.8315C80.4792 38.8315 78.9902 37.8915 78.9902 37.8915H78.8312L76.8342 48.55H69.5762L74.6252 22.1663C75.2022 19.1875 75.7822 15.218 76.0972 12.6051H82.5132L82.0922 16.4712H82.1962ZM79.9342 32.3539C79.9342 32.3539 81.0492 33.3988 82.9332 33.3988C86.9822 33.3988 89.7692 26.7639 89.7692 22.1138C89.7692 20.1799 89.0862 18.1427 86.8772 18.1427C84.3522 18.1427 81.9862 21.1214 81.1442 25.6142L79.9342 32.3539ZM107.703 1.84168C105.39 1.84168 103.549 3.67058 103.549 6.02106C103.549 8.16331 104.916 9.62641 106.967 9.62641H107.072C109.334 9.62641 111.279 8.11075 111.332 5.44703C111.332 3.35723 109.912 1.84168 107.703 1.84168ZM104.811 38.3099H97.5547L102.445 12.7627H109.756L104.811 38.3099ZM139.099 30.3169C141.136 24.1182 145.673 12.7627 145.673 12.7627V12.761H153.245L144.357 31.675C141.202 38.1541 138.153 42.9092 134.839 45.9912C132.262 48.3943 129.213 49.5966 127.74 49.9098L125.742 43.7965C126.951 43.3783 128.476 42.7517 129.843 41.7594C131.526 40.6096 132.945 39.0414 133.788 37.4225C133.999 37.0568 134.052 36.7418 133.946 36.2201L129.579 12.7627H137.205C137.205 12.7627 138.855 28.3207 138.993 30.3169H139.099Z" fill="#FFFAFA"/>
</svg>
