<svg width="217" height="55" viewBox="0 0 217 55" fill="none" xmlns="http://www.w3.org/2000/svg">
<path d="M70.0693 21.5076C70.0693 17.5849 66.2839 13.4186 59.7334 13.4186C52.3775 13.4186 44.2967 18.8564 43.0617 29.7049C41.7999 40.6616 48.5653 45.5312 55.3843 45.5312C62.2033 45.5312 65.7738 42.8529 69.425 39.2818C66.2839 35.305 62.2301 37.1446 61.4516 37.5504C60.5925 37.9833 59.4918 38.5785 57.2367 38.5785C54.6057 38.5785 51.9211 37.3881 51.9211 32.4373C68.7806 30.76 70.0693 25.4304 70.0693 21.5076ZM61.72 22.1569C61.6126 23.3743 61.1294 25.4575 52.5922 26.6208C54.3909 20.182 57.8273 19.695 59.4112 19.695C60.8878 19.695 61.8274 20.8583 61.72 22.1569ZM33.1554 23.212C33.1554 23.212 29.5311 34.6827 29.2358 35.6296C29.1284 34.6557 26.4706 14.0679 26.4706 14.0679C20.2959 14.0679 16.9938 18.5047 15.2488 23.1849C15.2488 23.1849 10.846 34.6827 10.4701 35.6567C10.4433 34.7639 9.79896 23.3202 9.79896 23.3202C9.42311 17.5848 4.2149 14.0949 0 14.0949L5.10083 45.2878C11.5708 45.2607 15.0609 40.851 16.8864 36.1707C16.8864 36.1707 20.7792 26.0256 20.9402 25.5657C20.9671 25.9985 23.7323 45.2878 23.7323 45.2878C30.2291 45.2878 33.7192 41.1485 35.5984 36.6306L44.6994 14.0949C38.2831 14.0949 34.9004 18.5047 33.1554 23.212ZM93.9089 13.3645C89.9088 13.3645 86.8483 15.5558 84.2711 18.7752V18.7482L86.5799 0C81.2643 0 76.942 4.65322 76.1097 11.5789L72.0828 45.0443C75.1433 45.0443 78.3917 44.1515 80.1367 41.879C81.6938 43.908 84.0294 45.5312 87.4926 45.5312C96.4594 45.5312 102.607 35.0344 102.607 25.1869C102.554 16.2051 98.2312 13.3645 93.9089 13.3645ZM93.0767 29.4614C92.1371 34.9533 89.1034 38.6867 86.1772 38.6867C83.2241 38.6867 81.9623 37.361 81.9623 37.361C82.526 32.5455 82.8751 29.5967 83.9489 27.0536C85.0228 24.5106 87.5732 20.4525 90.231 20.4525C92.8351 20.4525 94.0163 23.9424 93.0767 29.4614ZM124.997 14.0949H118.742L118.769 13.7703C119.198 9.65814 120.165 7.49385 123.36 7.14215C125.534 6.92573 126.501 5.78947 126.742 4.54501C126.93 3.57108 127.521 0.189375 127.521 0.189375C114.957 0.108214 111.01 5.57305 109.99 13.9056L109.963 14.0949H109.829C107.789 14.0949 105.533 16.4215 105.158 19.3704L105.023 20.4525H109.211L105.695 49.7245L104.621 54.9729C104.755 54.9729 104.916 55 105.05 55C110.93 54.7836 114.688 50.1033 115.52 43.3128L118.259 20.4525H120.218C122.151 20.4525 124.407 18.5047 124.809 15.2582L124.997 14.0949ZM157.535 13.5539C150.313 13.5539 143.494 18.9105 141.4 27.3242C139.306 35.7378 142.474 45.6936 153.105 45.6936C163.71 45.6936 169.831 35.332 169.831 26.7019C169.831 18.1259 164.059 13.5539 157.535 13.5539ZM160.461 29.1909C160.085 33.0054 158.421 38.7949 153.857 38.7949C149.266 38.7949 149.911 32.0315 150.367 28.8121C150.85 25.3763 152.756 20.4796 156.864 20.4796C160.542 20.4796 160.891 24.8893 160.461 29.1909ZM205.51 23.212C205.51 23.212 201.885 34.6827 201.59 35.6296C201.483 34.6557 198.825 14.0679 198.825 14.0679C192.65 14.0679 189.348 18.5047 187.603 23.1849C187.603 23.1849 183.2 34.6827 182.824 35.6567C182.798 34.7639 182.153 23.3202 182.153 23.3202C181.777 17.5848 176.569 14.0949 172.354 14.0949L177.428 45.2878C183.898 45.2607 187.388 40.851 189.214 36.1707C189.214 36.1707 193.107 26.0256 193.241 25.5657C193.295 25.9985 196.033 45.2878 196.033 45.2878C202.53 45.2878 206.02 41.1485 207.899 36.6306L217 14.0949C210.611 14.0949 207.228 18.5047 205.51 23.212ZM130.903 0.189375L125.641 42.9611L124.568 48.2366C124.702 48.2366 124.863 48.2636 124.997 48.2636C130.662 48.1825 134.689 43.1776 135.44 36.8741L138.474 12.3364C139.387 4.8426 134.957 0.189375 130.903 0.189375Z" fill="white"/>
</svg>
